<svg id="Layer_1" data-name="Layer 1" xmlns="http://www.w3.org/2000/svg" viewBox="0 0 560 560"><defs><style>.cls-1{fill:#fff;}.cls-2{fill:#1795d4;}</style></defs><title>Equal_Experts_Mark_RGB_White_Circle</title><circle class="cls-1" cx="280" cy="280" r="280"/><rect class="cls-2" x="214.17" y="221.28" width="131.67" height="39.51"/><rect class="cls-2" x="214.17" y="298.65" width="131.67" height="39.52"/><polygon class="cls-2" points="129.18 144 129.18 183.52 129.18 376.46 129.18 416 168.71 416 248.24 416 248.24 376.46 168.71 376.46 168.71 183.52 248.24 183.52 248.24 144 168.71 144 129.18 144"/><polygon class="cls-2" points="391.31 144 309.58 144 309.58 183.52 391.31 183.52 391.31 376.46 309.58 376.46 309.58 416 391.31 416 430.82 416 430.82 376.46 430.82 183.52 430.82 144 391.31 144"/></svg>