<svg id="Layer_1" data-name="Layer 1" xmlns="http://www.w3.org/2000/svg" viewBox="0 0 420.49 379.15"><defs><style>.cls-1{fill:#1795d4;}</style></defs><title>Equal Experts_Mark_RGB_Blue</title><rect class="cls-1" x="118.47" y="107.72" width="183.55" height="55.07"/><rect class="cls-1" x="118.47" y="215.57" width="183.55" height="55.09"/><polygon class="cls-1" points="0 0 0 55.08 0 324.05 0 379.15 55.1 379.15 165.97 379.15 165.97 324.05 55.1 324.05 55.1 55.08 165.97 55.08 165.97 0 55.1 0 0 0"/><polygon class="cls-1" points="365.41 0 251.48 0 251.48 55.08 365.41 55.08 365.41 324.05 251.48 324.05 251.48 379.15 365.41 379.15 420.49 379.15 420.49 324.05 420.49 55.08 420.49 0 365.41 0"/></svg>