<svg id="Layer_1" data-name="Layer 1" xmlns="http://www.w3.org/2000/svg" viewBox="0 0 600 600"><defs><style>.cls-1{fill:#fff;}</style></defs><title>Equal_Experts_Mark_Monochrome_White</title><rect class="cls-1" x="208.98" y="218.89" width="183.55" height="55.07"/><rect class="cls-1" x="208.98" y="326.74" width="183.55" height="55.09"/><polygon class="cls-1" points="90.51 111.17 90.51 166.26 90.51 435.22 90.51 490.32 145.62 490.32 256.48 490.32 256.48 435.22 145.62 435.22 145.62 166.26 256.48 166.26 256.48 111.17 145.62 111.17 90.51 111.17"/><polygon class="cls-1" points="455.92 111.17 341.99 111.17 341.99 166.26 455.92 166.26 455.92 435.22 341.99 435.22 341.99 490.32 455.92 490.32 511 490.32 511 435.22 511 166.26 511 111.17 455.92 111.17"/></svg>