<svg id="Layer_1" data-name="Layer 1" xmlns="http://www.w3.org/2000/svg" viewBox="0 0 598 598"><defs><style>.cls-1{fill:#1795d4;}.cls-2{fill:#fff;}</style></defs><title>Equal_Experts_Mark_RGB_Blue_Circle</title><circle class="cls-1" cx="299" cy="299" r="299"/><rect class="cls-2" x="229.82" y="237.29" width="138.37" height="41.52"/><rect class="cls-2" x="229.82" y="318.6" width="138.37" height="41.53"/><polygon class="cls-2" points="140.5 156.09 140.5 197.61 140.5 400.37 140.5 441.91 182.04 441.91 265.62 441.91 265.62 400.37 182.04 400.37 182.04 197.61 265.62 197.61 265.62 156.09 182.04 156.09 140.5 156.09"/><polygon class="cls-2" points="415.97 156.09 330.09 156.09 330.09 197.61 415.97 197.61 415.97 400.37 330.09 400.37 330.09 441.91 415.97 441.91 457.5 441.91 457.5 400.37 457.5 197.61 457.5 156.09 415.97 156.09"/></svg>