<svg width="273" height="273" viewBox="0 0 273 273" fill="none" xmlns="http://www.w3.org/2000/svg">
<g clip-path="url(#clip0_2163_244)">
<path d="M136.5 273C211.887 273 273 211.887 273 136.5C273 61.1131 211.887 0 136.5 0C61.1131 0 0 61.1131 0 136.5C0 211.887 61.1131 273 136.5 273Z" fill="#1795D4"/>
<path d="M168.087 108.328H104.918V127.283H168.087V108.328Z" fill="white"/>
<path d="M168.087 145.448H104.918V164.407H168.087V145.448Z" fill="white"/>
<path d="M64.1413 71.2585V90.2133V182.778V201.742H83.1052H121.261V182.778H83.1052V90.2133H121.261V71.2585H83.1052H64.1413Z" fill="white"/>
<path d="M189.899 71.2585H150.693V90.2133H189.899V182.778H150.693V201.742H189.899H208.859V182.778V90.2133V71.2585H189.899Z" fill="white"/>
</g>
<defs>
<clipPath id="clip0_2163_244">
<rect width="273" height="273" fill="white"/>
</clipPath>
</defs>
</svg>
