<svg width="500" height="132" viewBox="0 0 500 132" fill="none" xmlns="http://www.w3.org/2000/svg">
<g clip-path="url(#clip0_2163_227)">
<path d="M184.464 1.31879V56.8735H219.49V45.2344H197.511V34.7009H216.683V23.1517H197.511V12.9346H219.243L220.064 1.31879H184.464Z" fill="white"/>
<path d="M102.395 38.7438H40.1664V57.383H102.395V38.7438Z" fill="#1795D4"/>
<path d="M102.395 75.243H40.1664V93.8823H102.395V75.243Z" fill="#1795D4"/>
<path d="M18.6913 2.3045H0V130.575H56.2643V111.925H18.6913V20.9438H56.2643V2.3045H18.6913Z" fill="#1795D4"/>
<path d="M123.884 2.3045H85.2592V20.9537H123.884V111.925H85.2592V130.575H142.575V2.3045H123.884Z" fill="#1795D4"/>
<mask id="mask0_2163_227" style="mask-type:luminance" maskUnits="userSpaceOnUse" x="0" y="0" width="500" height="132">
<path d="M500 0H0V132H500V0Z" fill="white"/>
</mask>
<g mask="url(#mask0_2163_227)">
<path d="M241.055 29.0928C241.055 40.5488 243.531 46.41 250.557 46.41C257.583 46.41 260.137 40.5421 260.137 29.0928C260.137 17.6435 257.573 11.7757 250.557 11.7757C243.541 11.7757 241.055 17.7068 241.055 29.0928ZM227.333 28.9363C227.333 11.5359 233.452 0.00335693 250.547 0.00335693C267.643 0.00335693 273.765 11.5359 273.765 28.933V29.1994C273.765 41.3114 270.824 50.4629 263.344 55.0752L271.772 64.8528L260.45 70.6207L252.326 58.1057C251.749 58.1847 251.166 58.2137 250.584 58.1923C233.488 58.1923 227.37 46.6498 227.37 29.1761L227.333 28.9363Z" fill="white"/>
<path d="M295.81 1.23224V35.064C295.81 42.6502 297.376 46.4433 304.071 46.4433C310.767 46.4433 312.329 42.6502 312.329 35.064V1.23224H325.386V35.6734C325.386 50.3264 320.263 58.159 304.071 58.159C287.88 58.159 282.777 50.3397 282.777 35.6734V1.23224H295.81Z" fill="white"/>
<path d="M354.618 16.5646C352.572 22.7455 350.903 28.7632 349.331 34.701H360.322C358.597 28.7665 357.021 22.7488 355.039 16.5646H354.618ZM361.314 1.32214C365.773 12.938 373.54 36.9322 378.94 56.8636H365.696L363.296 46.3134H346.387L343.987 56.8636H330.717C335.65 38.0641 341.537 19.5264 348.353 1.32214H361.314Z" fill="white"/>
<path d="M399.227 1.32214V45.2344H421.196V56.8736H386.17V1.32214H399.227Z" fill="white"/>
<path d="M220.067 75.1265L219.246 86.7557H197.517V96.9595H216.686V108.515H197.517V119.065H219.496V130.681H184.47V75.1265H220.067Z" fill="white"/>
<path d="M240.634 75.1465C243.034 80.0319 246.579 86.8755 249.553 92.054H249.806C252.857 87.0953 256.482 80.0186 258.818 75.1465H273.504C269.586 83.0691 263.518 93.526 257.894 102.764L274.669 130.698H259.049L249.957 113.8H249.723L240.467 130.698H225.1L241.562 102.657C236.355 93.8623 229.797 81.9668 226.028 75.1232L240.634 75.1465Z" fill="white"/>
<path d="M294.742 100.862H297.302C302.917 100.862 306.117 100.196 306.117 93.6159C306.194 92.5574 306.017 91.496 305.599 90.5199C305.182 89.5438 304.537 88.6814 303.718 88.0045C301.795 86.9925 299.616 86.5664 297.453 86.7789H294.712L294.742 100.862ZM296.144 75.1465C300.685 74.9862 305.225 75.5174 309.605 76.7217C315.807 78.9396 319.846 85.0472 319.846 93.6126C319.846 106.224 311.835 112.478 298.364 112.478H294.742V130.681H281.725V75.1465H296.144Z" fill="white"/>
<path d="M363.96 75.1265L363.133 86.7557H341.401V96.9595H360.573V108.515H341.401V119.065H363.38V130.681H328.353V75.1265H363.96Z" fill="white"/>
<path d="M386.263 101.109H388.823C394.437 101.109 397.638 100.206 397.638 93.6126C397.712 92.5313 397.535 91.4476 397.121 90.4455C396.707 89.4435 396.068 88.5501 395.252 87.8346C393.327 86.7981 391.132 86.3685 388.957 86.6025H386.24L386.263 101.109ZM387.665 75.1332C392.206 74.9729 396.745 75.5041 401.126 76.7084C407.321 78.9263 411.366 85.0339 411.366 93.5992C411.639 96.7791 410.999 99.9707 409.522 102.801C408.044 105.632 405.79 107.984 403.022 109.584L413.099 130.681H399.564L391.554 112.385C390.649 112.462 389.411 112.462 388.252 112.462H386.293V130.665H373.203V75.1465L387.665 75.1332Z" fill="white"/>
<path d="M457.127 75.1265L456.306 86.7557H443.008V130.678H429.954V86.7557H416.33V75.1265H457.127Z" fill="white"/>
<path d="M496.208 88.9802C492.258 86.8976 487.872 85.7695 483.405 85.6866C481.764 85.5908 480.124 85.8711 478.608 86.5059C477.875 86.7752 477.246 87.2712 476.814 87.9217C476.383 88.5722 476.17 89.3432 476.209 90.1225C476.209 93.0531 479.149 94.8214 483.218 96.4799L487.847 98.2882C496.108 101.592 499.987 106.038 499.987 114.117C499.987 126.971 490.571 131.997 479.249 131.997C473.998 131.912 468.791 131.025 463.809 129.366L464.386 116.831C468.666 118.842 473.302 119.99 478.028 120.208C483.982 120.208 486.289 118.722 486.289 115.322C486.289 112.115 484.146 110.707 479.429 108.815L474.803 107.003C468.108 104.369 462.497 99.6769 462.497 90.4455C462.497 81.2141 469.173 73.821 482.727 73.821C487.596 73.8912 492.412 74.8436 496.939 76.6318L496.208 88.9802Z" fill="white"/>
</g>
<mask id="mask1_2163_227" style="mask-type:luminance" maskUnits="userSpaceOnUse" x="0" y="0" width="500" height="132">
<path d="M500 0H0V132H500V0Z" fill="white"/>
</mask>
<g mask="url(#mask1_2163_227)">
<path d="M241.055 29.0928C241.055 40.5488 243.531 46.41 250.557 46.41C257.583 46.41 260.137 40.5421 260.137 29.0928C260.137 17.6435 257.573 11.7757 250.557 11.7757C243.541 11.7757 241.055 17.7068 241.055 29.0928ZM227.333 28.9363C227.333 11.5359 233.452 0.00335693 250.547 0.00335693C267.643 0.00335693 273.765 11.5359 273.765 28.933V29.1994C273.765 41.3114 270.824 50.4629 263.344 55.0752L271.772 64.8528L260.45 70.6207L252.326 58.1057C251.749 58.1847 251.166 58.2137 250.584 58.1923C233.488 58.1923 227.37 46.6498 227.37 29.1761L227.333 28.9363Z" fill="white"/>
<path d="M295.81 1.23224V35.064C295.81 42.6502 297.376 46.4433 304.071 46.4433C310.767 46.4433 312.329 42.6502 312.329 35.064V1.23224H325.386V35.6734C325.386 50.3264 320.263 58.159 304.071 58.159C287.88 58.159 282.777 50.3397 282.777 35.6734V1.23224H295.81Z" fill="white"/>
<path d="M354.618 16.5646C352.572 22.7455 350.903 28.7632 349.331 34.701H360.322C358.597 28.7665 357.021 22.7488 355.039 16.5646H354.618ZM361.314 1.32214C365.773 12.938 373.54 36.9322 378.94 56.8636H365.696L363.296 46.3134H346.387L343.987 56.8636H330.717C335.65 38.0641 341.537 19.5264 348.353 1.32214H361.314Z" fill="white"/>
<path d="M399.227 1.32214V45.2344H421.196V56.8736H386.17V1.32214H399.227Z" fill="white"/>
<path d="M220.067 75.1265L219.246 86.7557H197.517V96.9595H216.686V108.515H197.517V119.065H219.496V130.681H184.47V75.1265H220.067Z" fill="white"/>
<path d="M240.634 75.1465C243.034 80.0319 246.579 86.8755 249.553 92.054H249.806C252.857 87.0953 256.482 80.0186 258.818 75.1465H273.504C269.586 83.0691 263.518 93.526 257.894 102.764L274.669 130.698H259.049L249.957 113.8H249.723L240.467 130.698H225.1L241.562 102.657C236.355 93.8623 229.797 81.9668 226.028 75.1232L240.634 75.1465Z" fill="white"/>
<path d="M294.742 100.862H297.302C302.917 100.862 306.117 100.196 306.117 93.6159C306.194 92.5574 306.017 91.496 305.599 90.5199C305.182 89.5438 304.537 88.6814 303.718 88.0045C301.795 86.9925 299.616 86.5664 297.453 86.7789H294.712L294.742 100.862ZM296.144 75.1465C300.685 74.9862 305.225 75.5174 309.605 76.7217C315.807 78.9396 319.846 85.0472 319.846 93.6126C319.846 106.224 311.835 112.478 298.364 112.478H294.742V130.681H281.725V75.1465H296.144Z" fill="white"/>
<path d="M363.96 75.1265L363.133 86.7557H341.401V96.9595H360.573V108.515H341.401V119.065H363.38V130.681H328.353V75.1265H363.96Z" fill="white"/>
<path d="M386.263 101.109H388.823C394.437 101.109 397.638 100.206 397.638 93.6126C397.712 92.5313 397.535 91.4476 397.121 90.4455C396.707 89.4435 396.068 88.5501 395.252 87.8346C393.327 86.7981 391.132 86.3685 388.957 86.6025H386.24L386.263 101.109ZM387.665 75.1332C392.206 74.9729 396.745 75.5041 401.126 76.7084C407.321 78.9263 411.366 85.0339 411.366 93.5992C411.639 96.7791 410.999 99.9707 409.522 102.801C408.044 105.632 405.79 107.984 403.022 109.584L413.099 130.681H399.564L391.554 112.385C390.649 112.462 389.411 112.462 388.252 112.462H386.293V130.665H373.203V75.1465L387.665 75.1332Z" fill="white"/>
<path d="M457.127 75.1265L456.306 86.7557H443.008V130.678H429.954V86.7557H416.33V75.1265H457.127Z" fill="white"/>
<path d="M496.208 88.9802C492.258 86.8976 487.872 85.7695 483.405 85.6866C481.764 85.5908 480.124 85.8711 478.608 86.5059C477.875 86.7752 477.246 87.2712 476.814 87.9217C476.383 88.5722 476.17 89.3432 476.209 90.1225C476.209 93.0531 479.149 94.8214 483.218 96.4799L487.847 98.2882C496.108 101.592 499.987 106.038 499.987 114.117C499.987 126.971 490.571 131.997 479.249 131.997C473.998 131.912 468.791 131.025 463.809 129.366L464.386 116.831C468.666 118.842 473.302 119.99 478.028 120.208C483.982 120.208 486.289 118.722 486.289 115.322C486.289 112.115 484.146 110.707 479.429 108.815L474.803 107.003C468.108 104.369 462.497 99.6769 462.497 90.4455C462.497 81.2141 469.173 73.821 482.727 73.821C487.596 73.8912 492.412 74.8436 496.939 76.6318L496.208 88.9802Z" fill="white"/>
</g>
</g>
<defs>
<clipPath id="clip0_2163_227">
<rect width="500" height="132" fill="white"/>
</clipPath>
</defs>
</svg>
